<mxfile host="app.diagrams.net" agent="Mozilla/5.0 (Windows NT 10.0; Win64; x64) AppleWebKit/537.36 (KHTML, like Gecko) Chrome/131.0.0.0 Safari/537.36" version="25.0.3">
  <diagram name="Página-1" id="kDInWahQSWKbYXr7RKir">
    <mxGraphModel dx="1257" dy="620" grid="1" gridSize="10" guides="1" tooltips="1" connect="1" arrows="1" fold="1" page="1" pageScale="1" pageWidth="827" pageHeight="1169" math="0" shadow="0">
      <root>
        <mxCell id="0" />
        <mxCell id="1" parent="0" />
        <mxCell id="HtWuBTHFdpet-klB8bUP-1" value="INICIO" style="strokeWidth=2;html=1;shape=mxgraph.flowchart.start_2;whiteSpace=wrap;" vertex="1" parent="1">
          <mxGeometry x="363" y="30" width="100" height="60" as="geometry" />
        </mxCell>
        <mxCell id="HtWuBTHFdpet-klB8bUP-2" value="FIM" style="strokeWidth=2;html=1;shape=mxgraph.flowchart.start_2;whiteSpace=wrap;" vertex="1" parent="1">
          <mxGeometry x="367" y="950" width="100" height="60" as="geometry" />
        </mxCell>
        <mxCell id="HtWuBTHFdpet-klB8bUP-3" value="NOME" style="html=1;strokeWidth=2;shape=manualInput;whiteSpace=wrap;rounded=1;size=26;arcSize=11;" vertex="1" parent="1">
          <mxGeometry x="363" y="110" width="100" height="60" as="geometry" />
        </mxCell>
        <mxCell id="HtWuBTHFdpet-klB8bUP-4" value="NOTA1" style="html=1;strokeWidth=2;shape=manualInput;whiteSpace=wrap;rounded=1;size=26;arcSize=11;" vertex="1" parent="1">
          <mxGeometry x="363" y="200" width="100" height="60" as="geometry" />
        </mxCell>
        <mxCell id="HtWuBTHFdpet-klB8bUP-35" style="edgeStyle=orthogonalEdgeStyle;rounded=0;orthogonalLoop=1;jettySize=auto;html=1;exitX=0.5;exitY=1;exitDx=0;exitDy=0;entryX=0.5;entryY=0;entryDx=0;entryDy=0;" edge="1" parent="1" source="HtWuBTHFdpet-klB8bUP-5" target="HtWuBTHFdpet-klB8bUP-6">
          <mxGeometry relative="1" as="geometry" />
        </mxCell>
        <mxCell id="HtWuBTHFdpet-klB8bUP-5" value="NOTA2" style="html=1;strokeWidth=2;shape=manualInput;whiteSpace=wrap;rounded=1;size=26;arcSize=11;" vertex="1" parent="1">
          <mxGeometry x="363" y="290" width="100" height="60" as="geometry" />
        </mxCell>
        <mxCell id="HtWuBTHFdpet-klB8bUP-6" value="MEDIA = (NOTA1 + NOTA2) / 2" style="rounded=1;whiteSpace=wrap;html=1;absoluteArcSize=1;arcSize=14;strokeWidth=2;" vertex="1" parent="1">
          <mxGeometry x="280" y="370" width="266" height="50" as="geometry" />
        </mxCell>
        <mxCell id="HtWuBTHFdpet-klB8bUP-33" style="edgeStyle=orthogonalEdgeStyle;rounded=0;orthogonalLoop=1;jettySize=auto;html=1;exitX=0.5;exitY=1;exitDx=0;exitDy=0;exitPerimeter=0;" edge="1" parent="1" source="HtWuBTHFdpet-klB8bUP-7" target="HtWuBTHFdpet-klB8bUP-8">
          <mxGeometry relative="1" as="geometry" />
        </mxCell>
        <mxCell id="HtWuBTHFdpet-klB8bUP-7" value="NOME&lt;div&gt;NOTA1&lt;/div&gt;&lt;div&gt;NOTA2&lt;/div&gt;&lt;div&gt;MEDIA&lt;/div&gt;" style="strokeWidth=2;html=1;shape=mxgraph.flowchart.display;whiteSpace=wrap;" vertex="1" parent="1">
          <mxGeometry x="345" y="450" width="136" height="80" as="geometry" />
        </mxCell>
        <mxCell id="HtWuBTHFdpet-klB8bUP-8" value="MEDIA &amp;gt;= 7" style="strokeWidth=2;html=1;shape=mxgraph.flowchart.decision;whiteSpace=wrap;" vertex="1" parent="1">
          <mxGeometry x="350" y="560" width="126" height="100" as="geometry" />
        </mxCell>
        <mxCell id="HtWuBTHFdpet-klB8bUP-9" value="APROVADO!" style="strokeWidth=2;html=1;shape=mxgraph.flowchart.display;whiteSpace=wrap;" vertex="1" parent="1">
          <mxGeometry x="533" y="660" width="113" height="70" as="geometry" />
        </mxCell>
        <mxCell id="HtWuBTHFdpet-klB8bUP-10" style="edgeStyle=orthogonalEdgeStyle;rounded=0;orthogonalLoop=1;jettySize=auto;html=1;exitX=1;exitY=0.5;exitDx=0;exitDy=0;exitPerimeter=0;entryX=0.5;entryY=0;entryDx=0;entryDy=0;entryPerimeter=0;" edge="1" parent="1" source="HtWuBTHFdpet-klB8bUP-8" target="HtWuBTHFdpet-klB8bUP-9">
          <mxGeometry relative="1" as="geometry" />
        </mxCell>
        <mxCell id="HtWuBTHFdpet-klB8bUP-11" value="SIM" style="edgeLabel;html=1;align=center;verticalAlign=middle;resizable=0;points=[];" vertex="1" connectable="0" parent="HtWuBTHFdpet-klB8bUP-10">
          <mxGeometry x="-0.2884" relative="1" as="geometry">
            <mxPoint as="offset" />
          </mxGeometry>
        </mxCell>
        <mxCell id="HtWuBTHFdpet-klB8bUP-12" value="" style="strokeWidth=2;html=1;shape=mxgraph.flowchart.start_2;whiteSpace=wrap;" vertex="1" parent="1">
          <mxGeometry x="402" y="890" width="30" height="30" as="geometry" />
        </mxCell>
        <mxCell id="HtWuBTHFdpet-klB8bUP-14" value="REPROVADO!" style="strokeWidth=2;html=1;shape=mxgraph.flowchart.display;whiteSpace=wrap;" vertex="1" parent="1">
          <mxGeometry x="36" y="740" width="120" height="60" as="geometry" />
        </mxCell>
        <mxCell id="HtWuBTHFdpet-klB8bUP-15" value="MEDIA &amp;gt;=2 E&lt;div&gt;MEDIA &amp;lt;7&lt;/div&gt;" style="strokeWidth=2;html=1;shape=mxgraph.flowchart.decision;whiteSpace=wrap;" vertex="1" parent="1">
          <mxGeometry x="162" y="640" width="126" height="100" as="geometry" />
        </mxCell>
        <mxCell id="HtWuBTHFdpet-klB8bUP-16" style="edgeStyle=orthogonalEdgeStyle;rounded=0;orthogonalLoop=1;jettySize=auto;html=1;entryX=0.5;entryY=0;entryDx=0;entryDy=0;entryPerimeter=0;" edge="1" parent="1" target="HtWuBTHFdpet-klB8bUP-15">
          <mxGeometry relative="1" as="geometry">
            <mxPoint x="356" y="610" as="sourcePoint" />
          </mxGeometry>
        </mxCell>
        <mxCell id="HtWuBTHFdpet-klB8bUP-17" value="NAO" style="edgeLabel;html=1;align=center;verticalAlign=middle;resizable=0;points=[];" vertex="1" connectable="0" parent="HtWuBTHFdpet-klB8bUP-16">
          <mxGeometry x="-0.1282" y="3" relative="1" as="geometry">
            <mxPoint as="offset" />
          </mxGeometry>
        </mxCell>
        <mxCell id="HtWuBTHFdpet-klB8bUP-18" value="RECUPERAÇÃO!" style="strokeWidth=2;html=1;shape=mxgraph.flowchart.display;whiteSpace=wrap;" vertex="1" parent="1">
          <mxGeometry x="300" y="740" width="126" height="60" as="geometry" />
        </mxCell>
        <mxCell id="HtWuBTHFdpet-klB8bUP-19" style="edgeStyle=orthogonalEdgeStyle;rounded=0;orthogonalLoop=1;jettySize=auto;html=1;exitX=1;exitY=0.5;exitDx=0;exitDy=0;exitPerimeter=0;entryX=0.66;entryY=0;entryDx=0;entryDy=0;entryPerimeter=0;" edge="1" parent="1" source="HtWuBTHFdpet-klB8bUP-15" target="HtWuBTHFdpet-klB8bUP-18">
          <mxGeometry relative="1" as="geometry" />
        </mxCell>
        <mxCell id="HtWuBTHFdpet-klB8bUP-20" value="SIM" style="edgeLabel;html=1;align=center;verticalAlign=middle;resizable=0;points=[];" vertex="1" connectable="0" parent="HtWuBTHFdpet-klB8bUP-19">
          <mxGeometry x="-0.2924" y="-3" relative="1" as="geometry">
            <mxPoint as="offset" />
          </mxGeometry>
        </mxCell>
        <mxCell id="HtWuBTHFdpet-klB8bUP-21" style="edgeStyle=orthogonalEdgeStyle;rounded=0;orthogonalLoop=1;jettySize=auto;html=1;exitX=0;exitY=0.5;exitDx=0;exitDy=0;exitPerimeter=0;entryX=0.5;entryY=0;entryDx=0;entryDy=0;entryPerimeter=0;" edge="1" parent="1" source="HtWuBTHFdpet-klB8bUP-15" target="HtWuBTHFdpet-klB8bUP-14">
          <mxGeometry relative="1" as="geometry" />
        </mxCell>
        <mxCell id="HtWuBTHFdpet-klB8bUP-22" value="NAO" style="edgeLabel;html=1;align=center;verticalAlign=middle;resizable=0;points=[];" vertex="1" connectable="0" parent="HtWuBTHFdpet-klB8bUP-21">
          <mxGeometry x="-0.4557" y="6" relative="1" as="geometry">
            <mxPoint as="offset" />
          </mxGeometry>
        </mxCell>
        <mxCell id="HtWuBTHFdpet-klB8bUP-23" value="" style="strokeWidth=2;html=1;shape=mxgraph.flowchart.start_2;whiteSpace=wrap;" vertex="1" parent="1">
          <mxGeometry x="210" y="830" width="30" height="30" as="geometry" />
        </mxCell>
        <mxCell id="HtWuBTHFdpet-klB8bUP-27" style="edgeStyle=orthogonalEdgeStyle;rounded=0;orthogonalLoop=1;jettySize=auto;html=1;exitX=0.5;exitY=1;exitDx=0;exitDy=0;exitPerimeter=0;entryX=0;entryY=0.5;entryDx=0;entryDy=0;entryPerimeter=0;" edge="1" parent="1" source="HtWuBTHFdpet-klB8bUP-14" target="HtWuBTHFdpet-klB8bUP-23">
          <mxGeometry relative="1" as="geometry" />
        </mxCell>
        <mxCell id="HtWuBTHFdpet-klB8bUP-28" style="edgeStyle=orthogonalEdgeStyle;rounded=0;orthogonalLoop=1;jettySize=auto;html=1;exitX=0.5;exitY=1;exitDx=0;exitDy=0;exitPerimeter=0;entryX=1;entryY=0.5;entryDx=0;entryDy=0;entryPerimeter=0;" edge="1" parent="1" source="HtWuBTHFdpet-klB8bUP-18" target="HtWuBTHFdpet-klB8bUP-23">
          <mxGeometry relative="1" as="geometry" />
        </mxCell>
        <mxCell id="HtWuBTHFdpet-klB8bUP-30" style="edgeStyle=orthogonalEdgeStyle;rounded=0;orthogonalLoop=1;jettySize=auto;html=1;exitX=0.5;exitY=1;exitDx=0;exitDy=0;exitPerimeter=0;entryX=0;entryY=0.5;entryDx=0;entryDy=0;entryPerimeter=0;" edge="1" parent="1" source="HtWuBTHFdpet-klB8bUP-23" target="HtWuBTHFdpet-klB8bUP-12">
          <mxGeometry relative="1" as="geometry" />
        </mxCell>
        <mxCell id="HtWuBTHFdpet-klB8bUP-31" style="edgeStyle=orthogonalEdgeStyle;rounded=0;orthogonalLoop=1;jettySize=auto;html=1;exitX=0.5;exitY=1;exitDx=0;exitDy=0;exitPerimeter=0;entryX=1;entryY=0.5;entryDx=0;entryDy=0;entryPerimeter=0;" edge="1" parent="1" source="HtWuBTHFdpet-klB8bUP-9" target="HtWuBTHFdpet-klB8bUP-12">
          <mxGeometry relative="1" as="geometry" />
        </mxCell>
        <mxCell id="HtWuBTHFdpet-klB8bUP-32" style="edgeStyle=orthogonalEdgeStyle;rounded=0;orthogonalLoop=1;jettySize=auto;html=1;exitX=0.5;exitY=1;exitDx=0;exitDy=0;exitPerimeter=0;entryX=0.5;entryY=0;entryDx=0;entryDy=0;entryPerimeter=0;" edge="1" parent="1" source="HtWuBTHFdpet-klB8bUP-12" target="HtWuBTHFdpet-klB8bUP-2">
          <mxGeometry relative="1" as="geometry" />
        </mxCell>
        <mxCell id="HtWuBTHFdpet-klB8bUP-34" style="edgeStyle=orthogonalEdgeStyle;rounded=0;orthogonalLoop=1;jettySize=auto;html=1;exitX=0.5;exitY=1;exitDx=0;exitDy=0;entryX=0.5;entryY=0;entryDx=0;entryDy=0;entryPerimeter=0;" edge="1" parent="1" source="HtWuBTHFdpet-klB8bUP-6" target="HtWuBTHFdpet-klB8bUP-7">
          <mxGeometry relative="1" as="geometry" />
        </mxCell>
        <mxCell id="HtWuBTHFdpet-klB8bUP-36" style="edgeStyle=orthogonalEdgeStyle;rounded=0;orthogonalLoop=1;jettySize=auto;html=1;exitX=0.5;exitY=1;exitDx=0;exitDy=0;entryX=0.5;entryY=0.333;entryDx=0;entryDy=0;entryPerimeter=0;" edge="1" parent="1" source="HtWuBTHFdpet-klB8bUP-4" target="HtWuBTHFdpet-klB8bUP-5">
          <mxGeometry relative="1" as="geometry" />
        </mxCell>
        <mxCell id="HtWuBTHFdpet-klB8bUP-37" style="edgeStyle=orthogonalEdgeStyle;rounded=0;orthogonalLoop=1;jettySize=auto;html=1;exitX=0.5;exitY=1;exitDx=0;exitDy=0;entryX=0.5;entryY=0.333;entryDx=0;entryDy=0;entryPerimeter=0;" edge="1" parent="1" source="HtWuBTHFdpet-klB8bUP-3" target="HtWuBTHFdpet-klB8bUP-4">
          <mxGeometry relative="1" as="geometry" />
        </mxCell>
        <mxCell id="HtWuBTHFdpet-klB8bUP-38" style="edgeStyle=orthogonalEdgeStyle;rounded=0;orthogonalLoop=1;jettySize=auto;html=1;exitX=0.5;exitY=1;exitDx=0;exitDy=0;exitPerimeter=0;entryX=0.5;entryY=0.238;entryDx=0;entryDy=0;entryPerimeter=0;" edge="1" parent="1" source="HtWuBTHFdpet-klB8bUP-1" target="HtWuBTHFdpet-klB8bUP-3">
          <mxGeometry relative="1" as="geometry" />
        </mxCell>
      </root>
    </mxGraphModel>
  </diagram>
</mxfile>
